<svg xmlns="http://www.w3.org/2000/svg" width="38" height="40" viewBox="0 0 38 40" fill="none">
<path d="M15.0308 37.5459V37.5338L8.02621 34.1565C7.51401 33.9105 7.05857 33.5808 6.67611 33.1848C5.79632 32.301 5.28006 31.6806 5.27601 30.3873L5.21925 18.4392C5.21654 17.808 5.85848 17.3796 6.43961 17.6229L11.9873 19.9474C13.7888 20.6974 14.9646 22.457 14.9727 24.4085L14.9983 29.9278L15.024 35.8647C15.024 35.8891 15.024 35.9107 15.0281 35.935C15.024 35.9431 15.024 35.9472 15.0281 35.9553C15.0659 36.9594 15.6322 37.7811 16.4201 38.2108L15.0308 37.5459Z" fill="url(#paint0_linear_1003_774)"/>
<path d="M36.469 18.4043L37.7475 28.1766V28.7564C37.7434 28.8402 37.7313 28.9186 37.7137 29.0024C37.7056 29.0524 37.6975 29.1064 37.684 29.1524C37.6799 29.1646 37.6799 29.1727 37.6759 29.1862C37.6718 29.1983 37.6718 29.2064 37.6678 29.22C37.6556 29.274 37.638 29.3321 37.6178 29.3821C37.6178 29.3862 37.6137 29.3902 37.6137 29.3943C37.5759 29.5105 37.5259 29.624 37.4677 29.7322C37.4421 29.7781 37.4177 29.82 37.3921 29.8619C37.3299 29.966 37.2542 30.066 37.1704 30.1619C37.1204 30.22 37.0704 30.2741 37.0123 30.3281C36.9366 30.3998 36.8582 30.466 36.7704 30.5282C36.6866 30.5903 36.5947 30.6484 36.4947 30.7039C36.3785 30.7701 36.2568 30.8295 36.1325 30.8877L18.8475 38.8882H18.8434C18.1353 39.218 17.3879 39.2099 16.7379 38.9545C16.7338 38.9545 16.7298 38.9545 16.7257 38.9504L16.4217 38.8045L16.4176 38.8004L15.0297 38.1328V38.1206L8.02646 34.7433C7.51426 34.4974 7.05882 34.1676 6.67636 33.7716C5.87225 32.9635 5.37086 31.8877 5.29248 30.7201C5.45465 32.4418 6.86421 33.6797 8.46973 32.9459L8.47379 32.9419L14.9986 29.9281L29.3482 23.2952L34.9946 20.6883L35.1446 20.6139C35.1568 20.6058 35.1703 20.5977 35.1865 20.5882C35.1906 20.5842 35.1946 20.5842 35.1987 20.5842C35.2446 20.5585 35.2946 20.5261 35.3365 20.4963C35.3906 20.4626 35.4446 20.4261 35.4946 20.3882C35.5446 20.3463 35.5906 20.3085 35.6365 20.2625C35.6568 20.2463 35.6784 20.2247 35.6987 20.2044C35.7109 20.1963 35.719 20.1882 35.7325 20.1747C35.7906 20.1206 35.8406 20.0625 35.8906 19.999C35.9663 19.9071 36.0366 19.8112 36.0987 19.7071C36.1406 19.6368 36.1825 19.5611 36.215 19.4868C36.219 19.4828 36.2231 19.4787 36.2231 19.4746C36.2569 19.4084 36.2852 19.3368 36.3109 19.2665C36.315 19.2544 36.319 19.2408 36.3231 19.2287C36.3312 19.2084 36.3393 19.1827 36.3474 19.1584C36.3636 19.0962 36.3852 19.0341 36.3974 18.9706C36.4055 18.9408 36.4096 18.9084 36.4136 18.8787C36.4258 18.8327 36.4339 18.7868 36.4393 18.7408C36.4474 18.707 36.4474 18.6746 36.4515 18.6408C36.4596 18.5949 36.4636 18.5489 36.4636 18.507C36.469 18.4746 36.469 18.4408 36.469 18.4043Z" fill="url(#paint1_linear_1003_774)"/>
<path d="M37.75 17.8149V28.4049C37.6878 27.4913 37.15 26.5993 36.1783 26.1952L29.3453 23.3315L3.83134 12.6443C1.66362 11.7361 0.25 9.61432 0.25 7.25874V1.73943C0.25 1.111 0.890587 0.685296 1.47036 0.927205L35.9282 15.3634C36.1039 15.4391 36.2702 15.5174 36.4323 15.6053C37.3162 16.0756 37.75 16.9432 37.75 17.8149Z" fill="url(#paint2_linear_1003_774)"/>
<defs>
<linearGradient id="paint0_linear_1003_774" x1="15.3189" y1="17.6511" x2="8.34271" y2="34.056" gradientUnits="userSpaceOnUse">
<stop stop-color="#A187FF"/>
<stop offset="1" stop-color="#4A36FF"/>
</linearGradient>
<linearGradient id="paint1_linear_1003_774" x1="15.1843" y1="28.7721" x2="37.1505" y2="28.7721" gradientUnits="userSpaceOnUse">
<stop stop-color="#9A7EFF"/>
<stop offset="1" stop-color="#4A36FF"/>
<stop offset="1" stop-color="#301AFF"/>
</linearGradient>
<linearGradient id="paint2_linear_1003_774" x1="38.847" y1="14.6312" x2="-3.48244" y2="14.6312" gradientUnits="userSpaceOnUse">
<stop offset="0.000165344" stop-color="#00D9A2"/>
<stop offset="0.2307" stop-color="#01D9A6"/>
<stop offset="0.4621" stop-color="#05D8B2"/>
<stop offset="0.6941" stop-color="#0CD8C6"/>
<stop offset="0.9251" stop-color="#15D6E2"/>
<stop offset="1" stop-color="#18D6ED"/>
</linearGradient>
</defs>
</svg>